<?xml version="1.0" standalone="no"?>
<!DOCTYPE svg PUBLIC "-//W3C//DTD SVG 20010904//EN"
 "http://www.w3.org/TR/2001/REC-SVG-20010904/DTD/svg10.dtd">
<svg version="1.0" xmlns="http://www.w3.org/2000/svg"
 width="1132.000000pt" height="1064.000000pt" viewBox="0 0 1132.000000 1064.000000"
 preserveAspectRatio="xMidYMid meet">

<g transform="translate(0.000000,1064.000000) scale(0.100000,-0.100000)"
fill="#000000" stroke="none">
<path d="M0 5320 l0 -5320 5660 0 5660 0 0 5320 0 5320 -5660 0 -5660 0 0
-5320z m2810 1020 c-369 -675 -384 -704 -371 -727 16 -28 138 -141 225 -207
31 -23 40 -26 47 -15 24 36 239 424 511 919 165 300 303 548 307 553 10 10
151 -28 250 -68 88 -36 209 -102 255 -138 l27 -22 -212 -385 c-218 -398 -272
-500 -265 -500 2 0 35 15 72 33 64 29 77 32 169 32 89 0 106 -3 157 -28 218
-107 201 -397 -28 -488 -67 -26 -190 -32 -260 -11 -102 30 -184 116 -207 218
l-13 58 -106 -195 c-58 -107 -128 -239 -156 -294 l-50 -100 67 -65 c63 -63
143 -130 231 -195 22 -16 46 -35 53 -40 49 -42 94 -58 162 -58 131 1 448 84
646 169 44 18 79 29 79 25 0 -17 -138 -186 -196 -242 -187 -177 -415 -295
-677 -351 -133 -28 -369 -30 -501 -4 -549 107 -960 506 -1078 1046 -26 116
-31 407 -10 505 24 110 55 205 66 205 6 0 41 -27 76 -60 36 -33 68 -60 71 -60
6 0 43 -30 80 -66 15 -14 19 -13 37 13 18 26 309 547 496 890 76 139 79 143
120 154 83 23 211 46 214 39 1 -4 -128 -247 -288 -540z m4890 546 c0 -2 -133
-241 -296 -532 -163 -291 -307 -550 -320 -576 l-23 -46 56 33 c102 62 246 79
364 43 22 -6 41 -9 43 -7 4 5 161 284 414 734 139 246 185 321 201 323 33 5
207 -53 302 -101 92 -46 209 -118 209 -128 0 -4 -110 -203 -245 -444 -548
-977 -665 -1193 -657 -1213 3 -9 21 -30 41 -46 19 -17 61 -57 94 -88 33 -32
63 -58 66 -58 3 0 33 -25 66 -56 33 -30 92 -70 130 -89 l70 -33 95 14 c194 29
360 73 548 146 57 22 105 38 108 35 9 -9 -92 -135 -175 -217 -188 -185 -415
-304 -684 -361 -144 -31 -380 -31 -524 0 -445 94 -794 375 -974 784 -127 288
-143 663 -42 950 9 26 20 47 23 47 4 0 16 -10 27 -22 12 -13 38 -36 58 -53 21
-16 45 -38 54 -47 8 -10 21 -18 29 -18 7 0 10 -5 7 -11 -4 -6 2 -13 14 -16 12
-3 21 -9 21 -13 0 -4 11 -12 23 -17 23 -11 29 -2 198 295 96 168 228 403 295
521 135 240 110 218 269 251 95 19 115 22 115 16z"/>
</g>
</svg>
